<svg width="1600" height="283" viewBox="0 0 1600 283" fill="none" xmlns="http://www.w3.org/2000/svg">
<path d="M112.033 256.356L58.5313 268.047C-26.0183 286.523 -106 222.131 -106 135.586C-106 60.704 -45.296 0 29.5862 0H1584.75C1651.16 0 1705 53.8356 1705 120.245C1705 161.361 1683.99 199.626 1649.3 221.697L1612.22 245.292C1584.5 262.928 1552.87 273.475 1520.11 276.004L1448.47 281.535C1421.21 283.64 1393.81 283.449 1366.58 280.964L1351.72 279.609C1297.6 274.67 1244.63 261.004 1194.87 239.14L1186.99 235.676C1164.04 225.594 1142.07 213.428 1121.35 199.333L1084.4 174.199C1040.48 144.328 988.6 128.356 935.489 128.356C914.57 128.356 893.725 130.835 873.39 135.741L836.144 144.727C816.092 149.565 796.538 156.273 777.74 164.763L765.755 170.175C730.983 185.878 693.268 194 655.115 194H626.976C590.53 194 554.953 182.868 525.008 162.093C502.632 146.569 477.006 136.36 450.085 132.242L416.426 127.095C381.592 121.767 346.004 124.371 312.316 134.712C275.348 146.061 241.766 166.388 214.571 193.88L201.41 207.184C176.994 231.865 145.95 248.944 112.033 256.356Z" fill="url(#paint0_linear_12257_46)"/>
<defs>
<linearGradient id="paint0_linear_12257_46" x1="-105.5" y1="-0.482549" x2="1701.59" y2="325.211" gradientUnits="userSpaceOnUse">
<stop stop-color="#DCB44C"/>
<stop offset="1" stop-color="#FF8E26"/>
</linearGradient>
</defs>
</svg>
