<svg width="1600" height="434" viewBox="0 0 1600 434" fill="none" xmlns="http://www.w3.org/2000/svg">
<path fill-rule="evenodd" clip-rule="evenodd" d="M197.812 432.946C201.17 432.746 204.51 432.136 207.86 431.824C315.526 421.809 398.226 318.745 398.226 212.082C396.403 192.075 392.423 173.337 386.595 155.93C381.13 139.61 392.391 121.049 409.601 121.049V121.049C428.294 121.049 440.671 143.866 437.249 162.243C436.004 168.927 435.346 175.893 435.346 183.05C435.346 233.597 468.173 274.574 508.668 274.574C549.163 274.574 580.158 274.574 612.236 183.05V183.05C621.822 155.701 649.157 121.049 678.136 121.049H688.341C726.893 121.049 753.982 175.99 753.982 214.542V214.542C753.982 287.374 811.317 346.416 882.042 346.416C952.767 346.416 1010.1 287.374 1010.1 214.542C1010.1 195.933 1006.36 178.224 999.606 162.171C992.431 145.115 1003.47 121.049 1021.98 121.049H1029.78C1040.19 121.049 1047.59 131.422 1047.59 141.83V141.83C1047.59 177.212 1075.29 205.896 1109.45 205.896C1137.53 205.896 1207.73 198.865 1225.19 150.143C1230.6 135.051 1242.52 121.049 1258.55 121.049V121.049C1278.89 121.049 1292.64 142.256 1286.99 161.792C1278.6 190.791 1273.67 223.289 1273.11 258.959C1273.04 263.51 1273.54 268.086 1274.63 272.505C1300.21 376.508 1368.57 428.104 1466.22 433C1485.26 433.955 1502.33 433.925 1517.61 433H1617C1633.57 433 1647 419.569 1647 403V30C1647 13.4315 1633.57 0 1617 0H1553.88H1497.36H1466.22H196H161.946H24.808H-14C-30.5685 0 -44 13.4315 -44 30V212.082V403C-44 419.569 -30.5685 433 -14 433H196C196.608 433 197.213 432.982 197.812 432.946Z" fill="url(#paint0_linear_12250_29)"/>
<defs>
<linearGradient id="paint0_linear_12250_29" x1="76.7494" y1="39.9224" x2="1651.28" y2="278.718" gradientUnits="userSpaceOnUse">
<stop offset="0.0770759" stop-color="#DCB44C"/>
<stop offset="1" stop-color="#FF8E26"/>
</linearGradient>
</defs>
</svg>
