<svg width="59" height="59" viewBox="0 0 59 59" fill="none" xmlns="http://www.w3.org/2000/svg">
<rect width="59" height="59" rx="15" fill="white"/>
<path d="M22.14 22.86C23.7933 22.86 24.62 23.74 24.62 25.5V33.56C24.62 35.32 23.7933 36.2 22.14 36.2H22.1V37.2C22.1 37.4 22.2 37.5 22.4 37.5H23.04V39.46H21.86C21.2067 39.46 20.6933 39.26 20.32 38.86C19.96 38.4733 19.78 38.0333 19.78 37.54V36.2H19.48C17.8267 36.2 17 35.32 17 33.56V25.5C17 23.74 17.8267 22.86 19.48 22.86H22.14ZM19.8 25.16V33.88C19.8 33.9867 19.8333 34.08 19.9 34.16C19.98 34.24 20.0733 34.28 20.18 34.28H21.44C21.5467 34.28 21.6333 34.24 21.7 34.16C21.78 34.08 21.82 33.9867 21.82 33.88V25.16C21.82 25.0533 21.78 24.96 21.7 24.88C21.6333 24.8 21.5467 24.76 21.44 24.76H20.18C20.0733 24.76 19.98 24.8 19.9 24.88C19.8333 24.96 19.8 25.0533 19.8 25.16ZM25.7522 25.44V23.06H32.7522V25.44H30.6522V36H27.8522V25.44H25.7522ZM41.2113 26.46H38.5513V25.44C38.5513 25.3333 38.5113 25.24 38.4313 25.16C38.3646 25.08 38.2779 25.04 38.1712 25.04H37.0713C36.9646 25.04 36.8713 25.08 36.7913 25.16C36.7246 25.24 36.6913 25.3333 36.6913 25.44V27.74C36.6913 27.8467 36.7246 27.94 36.7913 28.02C36.8713 28.1 36.9646 28.14 37.0713 28.14H38.8713C40.5246 28.1667 41.3513 29.0467 41.3513 30.78V33.56C41.3513 35.32 40.5246 36.2 38.8713 36.2H36.5113C34.8579 36.2 34.0313 35.32 34.0313 33.56V32.22H36.6913V33.66C36.6913 33.7667 36.7246 33.86 36.7913 33.94C36.8713 34.02 36.9646 34.06 37.0713 34.06H38.3112C38.4179 34.06 38.5046 34.02 38.5713 33.94C38.6513 33.86 38.6913 33.7667 38.6913 33.66V31.12C38.6913 31.0133 38.6513 30.92 38.5713 30.84C38.5046 30.76 38.4179 30.72 38.3112 30.72H36.5113C34.8579 30.72 34.0313 29.84 34.0313 28.08V25.5C34.0313 23.74 34.8579 22.86 36.5113 22.86H38.7313C40.3846 22.86 41.2113 23.74 41.2113 25.5V26.46Z" fill="black"/>
</svg>
